<svg width="650" height="400" viewBox="0 0 650 400" fill="none" xmlns="http://www.w3.org/2000/svg">
<path d="M179.062 184.625C177.562 181.333 174.625 179.688 170.25 179.688C165.167 179.688 161.75 181.333 160 184.625C159.042 186.5 158.562 189.292 158.562 193V234H140.5V166H157.812V175.938C160.021 172.396 162.104 169.875 164.062 168.375C167.521 165.708 172 164.375 177.5 164.375C182.708 164.375 186.917 165.521 190.125 167.812C192.708 169.938 194.667 172.667 196 176C198.333 172 201.229 169.062 204.688 167.188C208.354 165.312 212.438 164.375 216.938 164.375C219.938 164.375 222.896 164.958 225.812 166.125C228.729 167.292 231.375 169.333 233.75 172.25C235.667 174.625 236.958 177.542 237.625 181C238.042 183.292 238.25 186.646 238.25 191.062L238.125 234H219.875V190.625C219.875 188.042 219.458 185.917 218.625 184.25C217.042 181.083 214.125 179.5 209.875 179.5C204.958 179.5 201.562 181.542 199.688 185.625C198.729 187.792 198.25 190.396 198.25 193.438V234H180.312V193.438C180.312 189.396 179.896 186.458 179.062 184.625ZM311.5 174.5C317.25 181.708 320.125 190.229 320.125 200.062C320.125 210.062 317.25 218.625 311.5 225.75C305.75 232.833 297.021 236.375 285.312 236.375C273.604 236.375 264.875 232.833 259.125 225.75C253.375 218.625 250.5 210.062 250.5 200.062C250.5 190.229 253.375 181.708 259.125 174.5C264.875 167.292 273.604 163.688 285.312 163.688C297.021 163.688 305.75 167.292 311.5 174.5ZM285.25 178.75C280.042 178.75 276.021 180.604 273.188 184.312C270.396 187.979 269 193.229 269 200.062C269 206.896 270.396 212.167 273.188 215.875C276.021 219.583 280.042 221.438 285.25 221.438C290.458 221.438 294.458 219.583 297.25 215.875C300.042 212.167 301.438 206.896 301.438 200.062C301.438 193.229 300.042 187.979 297.25 184.312C294.458 180.604 290.458 178.75 285.25 178.75ZM389.75 174.5C395.5 181.708 398.375 190.229 398.375 200.062C398.375 210.062 395.5 218.625 389.75 225.75C384 232.833 375.271 236.375 363.562 236.375C351.854 236.375 343.125 232.833 337.375 225.75C331.625 218.625 328.75 210.062 328.75 200.062C328.75 190.229 331.625 181.708 337.375 174.5C343.125 167.292 351.854 163.688 363.562 163.688C375.271 163.688 384 167.292 389.75 174.5ZM363.5 178.75C358.292 178.75 354.271 180.604 351.438 184.312C348.646 187.979 347.25 193.229 347.25 200.062C347.25 206.896 348.646 212.167 351.438 215.875C354.271 219.583 358.292 221.438 363.5 221.438C368.708 221.438 372.708 219.583 375.5 215.875C378.292 212.167 379.688 206.896 379.688 200.062C379.688 193.229 378.292 187.979 375.5 184.312C372.708 180.604 368.708 178.75 363.5 178.75ZM473.188 142V234H455.875V224.562C453.333 228.604 450.438 231.542 447.188 233.375C443.938 235.208 439.896 236.125 435.062 236.125C427.104 236.125 420.396 232.917 414.938 226.5C409.521 220.042 406.812 211.771 406.812 201.688C406.812 190.062 409.479 180.917 414.812 174.25C420.188 167.583 427.354 164.25 436.312 164.25C440.438 164.25 444.104 165.167 447.312 167C450.521 168.792 453.125 171.292 455.125 174.5V142H473.188ZM425.188 200.375C425.188 206.667 426.438 211.688 428.938 215.438C431.396 219.229 435.146 221.125 440.188 221.125C445.229 221.125 449.062 219.25 451.688 215.5C454.312 211.75 455.625 206.896 455.625 200.938C455.625 192.604 453.521 186.646 449.312 183.062C446.729 180.896 443.729 179.812 440.312 179.812C435.104 179.812 431.271 181.792 428.812 185.75C426.396 189.667 425.188 194.542 425.188 200.375ZM507.75 165.875V234H489.688V165.875H507.75ZM507.75 141.312V157.75H489.688V141.312H507.75Z" fill="white"/>
<path d="M282.5 251C282.5 251 284.912 284 325.505 284C366.098 284 366.5 251 366.5 251" stroke="white" stroke-width="14"/>
</svg>
