<svg width="525" height="214" viewBox="0 0 525 214" fill="none" xmlns="http://www.w3.org/2000/svg">
<path d="M296.523 2.2411C294.361 8.7919 283.455 35.5576 280.626 41.2551C276.113 50.3424 270.471 59.3532 251.148 88.3276C231.8 117.341 231.336 117.972 229.353 117.972C227.449 117.972 227.393 113.168 229.284 112C230.068 111.515 230.386 109.88 229.99 108.367C229.248 105.529 232.522 91.3874 240.519 62.8931C243.049 53.8772 245.975 43.305 247.02 39.3991C249.804 28.997 253.45 18.316 256.082 12.8515C257.353 10.2123 258.033 7.11418 257.592 5.96671C256.313 2.63338 252.903 3.55365 251.96 7.48671C250.41 13.9533 247.379 18.7294 235.012 34.193C219.793 53.2243 212.401 59.555 205.401 59.555C201.938 59.555 199.425 58.6473 197.467 56.6898C194.948 54.1705 194.797 53.3979 196.212 50.291C197.361 47.7701 197.418 46.3533 196.412 45.3471C194.111 43.0467 190.536 46.2408 190.064 51.0176C189.353 58.2155 197.035 64.2044 206.98 64.2044C212.099 64.2044 213.165 63.4944 223.213 53.3855C229.128 47.435 236.535 38.7542 239.673 34.0947C242.811 29.4352 245.617 26.3363 245.907 27.2082C246.198 28.0801 244.662 34.2529 242.494 40.9255C236.559 59.1947 228.232 89.9189 226.411 100.268C225.522 105.317 224.232 110.185 223.543 111.087C222.065 113.023 211.1 113.27 206.375 111.473C197.15 107.966 188.458 95.7023 185.785 82.4235C183.568 71.4131 184.14 41.8661 186.865 26.6122C188.174 19.2798 189.033 12.6408 188.772 11.859C186.39 4.71338 175.286 26.3855 164.975 58.3033C153.614 93.4699 150.431 102.527 146.19 111.742C141.445 122.054 138.733 123.049 134.576 116.004C131.952 111.557 127.925 109.976 126.226 112.726C125.78 113.447 124.201 114.037 122.717 114.037C120.206 114.037 120.068 113.469 120.727 105.841C121.117 101.333 121.628 96.5282 121.864 95.1634C122.727 90.1551 118.983 91.5954 116.549 97.2079C113.263 104.784 103.325 117.972 100.901 117.972C99.3036 117.972 99.1111 116.425 99.7987 109.12C100.895 97.471 112.642 50.5366 117.665 37.7347C121.564 27.7986 121.745 23.5512 118.27 23.5512C117.225 23.5512 115.379 27.166 113.78 32.3443C112.286 37.1804 108.5 45.8849 105.366 51.6874C102.232 57.4899 95.6723 70.204 90.7884 79.9411C79.9828 101.485 68.2083 121.906 66.5919 121.906C62.6611 121.906 64.7648 113.124 78.8585 70.703C89.4105 38.9419 92.7852 27.6791 92.7852 24.2237C92.7852 19.737 89.5831 23.3404 83.998 34.1127C80.8393 40.2048 76.855 47.2547 75.1439 49.7791C73.4328 52.3035 65.3422 65.6895 57.1647 79.5258C48.9872 93.3619 40.9512 106.935 39.3068 109.688L36.3171 114.693L37.1595 110.103C37.6228 107.579 42.1428 95.1861 47.204 82.5639C66.3745 34.7546 69.8989 25.1444 68.7013 23.9468C66.9301 22.1756 63.474 25.6919 52.7524 40.173C34.7091 64.5431 21.3527 77.3185 13.9169 77.3185C10.7166 77.3185 9.69547 76.5091 8.1112 72.7175C7.05388 70.187 6.49975 66.7938 6.87978 65.177C7.7746 61.37 5.77828 58.3496 3.05736 59.3938C-0.205339 60.6458 -0.79691 63.7318 0.997343 70.1402C4.56044 82.8664 12.6056 85.863 23.6208 78.5667C31.5389 73.3219 43.9712 59.9354 50.3298 49.8075C63.4609 28.8922 63.6412 32.2113 51.0127 62.3817C45.3099 76.0063 39.1184 91.8749 37.2539 97.645C30.686 117.972 28.1527 127.214 28.9348 127.996C30.2173 129.279 33.7589 127.396 34.7876 124.885C35.3112 123.607 39.8207 115.775 44.8087 107.48C56.8791 87.4087 66.0516 71.6907 70.8288 62.8931C81.7833 42.7192 83.8977 39.1431 84.5096 39.755C84.8753 40.1207 81.5145 50.9351 77.0413 63.7868C62.1107 106.683 58.1688 122.687 61.7935 125.696C67.5288 130.456 74.1653 121.448 92.8683 83.5183C100.966 67.0951 107.832 53.8973 108.124 54.1898C108.417 54.4823 106.341 62.9041 103.512 72.9049C97.3789 94.5865 95.0057 107.341 95.6148 115.349C96.0157 120.62 96.4345 121.293 99.5349 121.652C102.115 121.951 104.211 120.814 107.695 117.226C110.273 114.571 112.734 111.292 113.164 109.94C114.303 106.349 116.39 106.935 116.39 110.845C116.39 118.063 122.322 122.006 126.658 117.671C127.933 116.395 128.878 116.797 131.182 119.596C132.784 121.542 135.569 123.668 137.373 124.32C146.357 127.568 148.051 124.041 169.39 57.6475C174.142 42.8615 179.215 28.4034 180.664 25.5183L183.297 20.2729L182.681 26.8298C182.342 30.436 181.393 38.4029 180.572 44.5335C177.502 67.4569 181.574 92.4153 190.245 103.819C196.411 111.928 207.366 118.266 214.089 117.615C216.974 117.335 220.324 116.664 221.532 116.124C223.263 115.351 223.821 115.931 224.155 118.852C224.823 124.681 229.579 124.532 235.097 118.508C238.828 114.435 256.626 89.3073 261.299 81.5153C262.02 80.3127 264.155 76.9585 266.043 74.0615C267.93 71.1646 271.415 64.9584 273.786 60.2703C278.842 50.2718 279.92 51.3185 277.098 63.4875C273.279 79.9534 274.947 91.6 281.513 94.32C283.525 95.1531 289.525 95.6506 294.87 95.4274L304.575 95.0222L304.978 101.332C305.2 104.802 304.483 114.964 303.386 123.914C301.286 141.035 299.091 147.18 292.286 154.982C286.336 161.805 270.194 186.419 266.584 194.172C262.894 202.1 262.551 204.596 264.84 206.884C267.296 209.34 269.358 208.786 274.474 204.294C283.47 196.396 293.582 178.039 299.671 158.554C304.019 144.64 306.018 140.328 313.013 129.774C317.173 123.498 325.714 106.108 327.989 99.2842C329.479 94.8122 331.459 97.0769 331.459 103.254C331.459 106.802 332.344 110.784 333.5 112.434C337.393 117.993 345.08 115.243 349.053 106.87C351.109 102.537 353.752 100.642 353.752 103.5C353.752 105.85 358.268 107.116 362.526 105.96C365.66 105.108 367.125 103.672 368.369 100.232C369.283 97.7059 370.646 95.8428 371.399 96.0911C372.182 96.3498 373.569 106.452 374.643 119.725L376.518 142.908L373.197 146.504C365.735 154.586 352.425 178.472 348.174 191.41C344.706 201.964 344.324 207.86 346.902 211.044C350.399 215.362 355.677 213.342 364.561 204.286C377.753 190.838 381.733 179.294 381.058 156.442L380.636 142.153L391.972 125.145C404.483 106.373 409.686 96.7613 411.15 89.7149C412.652 82.4857 414.655 83.7253 415.488 92.3994C416.363 101.521 417.491 104.632 421.071 107.808C426.164 112.327 432.618 110.016 435.851 102.515L437.95 97.645L439.806 102.827C443.152 112.172 447.788 112.453 460.182 104.062C470.141 97.3192 471.528 97.1903 487.442 101.526C492.628 102.939 498.455 103.595 502.523 103.223C512.201 102.34 524.234 98.4698 524.234 96.2406C524.234 93.8413 522.021 93.8755 514.909 96.3846C507.197 99.1057 494.321 99.0327 485.901 96.2202C473.999 92.2447 468.422 92.8866 458.753 99.3441C447.945 106.562 445.817 106.256 443.065 97.0935C441.891 93.1839 440.227 89.751 439.369 89.4649C438.511 89.1787 436.038 92.4507 433.875 96.7361C429.982 104.448 427.538 106.735 424.973 105.064C422.086 103.184 420.849 98.3779 419.935 85.4842C418.657 67.4655 417.35 66.8508 410.935 81.2526C402.679 99.7872 399.528 105.9 393.327 115.416C389.778 120.862 385.898 127.206 384.705 129.513C383.512 131.82 382.047 133.708 381.451 133.708C380.433 133.708 379.468 124.532 377.518 96.3335C376.908 87.5188 376.24 84.531 374.878 84.531C373.874 84.531 372.399 85.6825 371.599 87.0897C363.233 101.807 357.59 105.482 356.375 97.0042C355.33 89.7135 352.299 90.7122 347.823 99.8215C343.017 109.604 340.054 111.921 337.186 108.136C335.717 106.196 335.31 102.959 335.624 95.7053C336.4 77.7794 331.732 82.5406 315.722 116.004C307.709 132.752 304.779 135.542 307.799 123.546C308.64 120.207 309.674 112.567 310.097 106.568C311.174 91.3113 310.059 90.1737 294.515 90.6674C286.507 90.9218 282.504 90.5239 281.336 89.3572C280.323 88.3451 279.677 84.4622 279.704 79.5495C279.805 61.3882 285.564 39.9469 296.64 16.4977C300.005 9.37258 302.449 2.73365 302.069 1.74458C301.088 -0.812347 297.422 -0.484096 296.523 2.2411ZM376.422 151.157C376.784 152.098 376.632 159.045 376.086 166.594C375.348 176.793 374.331 181.829 372.126 186.193C367.388 195.573 360.32 204.524 357.652 204.524C356.314 204.524 354.854 205.114 354.408 205.835C352.932 208.224 349.818 207.208 349.818 204.337C349.818 198.226 355.385 183.547 362.43 171.083C366.506 163.87 370.77 156.051 371.906 153.707C374.119 149.137 375.375 148.427 376.422 151.157ZM291.692 170.081C286.834 181.13 273.077 203.212 271.052 203.212C268.918 203.212 269.717 197.47 272.599 192.092C277.695 182.586 295.286 156.986 295.756 158.395C296.011 159.159 294.182 164.418 291.692 170.081ZM129.611 62.1082C127.635 64.4894 128.807 68.9017 131.711 70.0162C134.553 71.107 138.893 66.9671 138.414 63.6211C137.936 60.2812 131.978 59.2571 129.611 62.1082Z" fill="black"/>
</svg>
